HIERARCHY
ROOT Hips
{
	OFFSET 0.00000 0.00000 0.00000
	CHANNELS 6 Xposition Yposition Zposition Zrotation Yrotation Xrotation 
	JOINT LHipJoint
	{
		OFFSET 0 0 0
		CHANNELS 3 Zrotation Yrotation Xrotation
		JOINT LeftUpLeg
		{
			OFFSET 1.28366 -1.58472 0.87544
			CHANNELS 3 Zrotation Yrotation Xrotation
			JOINT LeftLeg
			{
				OFFSET 2.18587 -6.00562 0.00000
				CHANNELS 3 Zrotation Yrotation Xrotation
				JOINT LeftFoot
				{
					OFFSET 2.39085 -6.56880 0.00000
					CHANNELS 3 Zrotation Yrotation Xrotation
					JOINT LeftToeBase
					{
						OFFSET 0.12003 -0.32979 2.03101
						CHANNELS 3 Zrotation Yrotation Xrotation
						End Site
						{
							OFFSET 0.00000 -0.00000 1.04074
						}
					}
				}
			}
		}
	}
	JOINT RHipJoint
	{
		OFFSET 0 0 0
		CHANNELS 3 Zrotation Yrotation Xrotation
		JOINT RightUpLeg
		{
			OFFSET -1.21795 -1.58472 0.87544
			CHANNELS 3 Zrotation Yrotation Xrotation
			JOINT RightLeg
			{
				OFFSET -2.22714 -6.11902 0.00000
				CHANNELS 3 Zrotation Yrotation Xrotation
				JOINT RightFoot
				{
					OFFSET -2.40306 -6.60235 0.00000
					CHANNELS 3 Zrotation Yrotation Xrotation
					JOINT RightToeBase
					{
						OFFSET -0.15519 -0.42640 1.91430
						CHANNELS 3 Zrotation Yrotation Xrotation
						End Site
						{
							OFFSET -0.00000 -0.00000 0.99082
						}
					}
				}
			}
		}
	}
	JOINT LowerBack
	{
		OFFSET 0 0 0
		CHANNELS 3 Zrotation Yrotation Xrotation
		JOINT Spine
		{
			OFFSET 0.01180 1.76430 -0.06387
			CHANNELS 3 Zrotation Yrotation Xrotation
			JOINT Spine1
			{
				OFFSET -0.00388 1.74651 0.09536
				CHANNELS 3 Zrotation Yrotation Xrotation
				JOINT Neck
				{
					OFFSET 0 0 0
					CHANNELS 3 Zrotation Yrotation Xrotation
					JOINT Neck1
					{
						OFFSET 0.04111 1.46174 0.14397
						CHANNELS 3 Zrotation Yrotation Xrotation
						JOINT Head
						{
							OFFSET 0.00502 1.44580 -0.31711
							CHANNELS 3 Zrotation Yrotation Xrotation
							End Site
							{
								OFFSET -0.00395 1.49251 -0.12327
							}
						}
					}
				}
				JOINT LeftShoulder
				{
					OFFSET 0 0 0
					CHANNELS 3 Zrotation Yrotation Xrotation
					JOINT LeftArm
					{
						OFFSET 2.70917 1.34870 -0.15417
						CHANNELS 3 Zrotation Yrotation Xrotation
						JOINT LeftForeArm
						{
							OFFSET 4.46610 -0.00000 -0.00000
							CHANNELS 3 Zrotation Yrotation Xrotation
							JOINT LeftHand
							{
								OFFSET 3.41414 -0.00000 0.00000
								CHANNELS 3 Zrotation Yrotation Xrotation
								JOINT LeftFingerBase
								{
									OFFSET 0 0 0
									CHANNELS 3 Zrotation Yrotation Xrotation
									JOINT LeftHandIndex1
									{
										OFFSET 0.32830 -0.00000 0.00000
										CHANNELS 3 Zrotation Yrotation Xrotation
										End Site
										{
											OFFSET 0.26468 -0.00000 0.00000
										}
									}
								}
								JOINT LThumb
								{
									OFFSET 0 0 0
									CHANNELS 3 Zrotation Yrotation Xrotation
									End Site
									{
										OFFSET 0.26872 -0.00000 0.26872
									}
								}
							}
						}
					}
				}
				JOINT RightShoulder
				{
					OFFSET 0 0 0
					CHANNELS 3 Zrotation Yrotation Xrotation
					JOINT RightArm
					{
						OFFSET -3.06316 1.13725 -0.10883
						CHANNELS 3 Zrotation Yrotation Xrotation
						JOINT RightForeArm
						{
							OFFSET -4.40431 -0.00000 0.00000
							CHANNELS 3 Zrotation Yrotation Xrotation
							JOINT RightHand
							{
								OFFSET -3.04688 -0.00000 0.00000
								CHANNELS 3 Zrotation Yrotation Xrotation
								JOINT RightFingerBase
								{
									OFFSET 0 0 0
									CHANNELS 3 Zrotation Yrotation Xrotation
									JOINT RightHandIndex1
									{
										OFFSET -0.50049 -0.00000 0.00000
										CHANNELS 3 Zrotation Yrotation Xrotation
										End Site
										{
											OFFSET -0.40351 -0.00000 0.00000
										}
									}
								}
								JOINT RThumb
								{
									OFFSET 0 0 0
									CHANNELS 3 Zrotation Yrotation Xrotation
									End Site
									{
										OFFSET -0.40967 -0.00000 0.40967
									}
								}
							}
						}
					}
				}
			}
		}
	}
}
MOTION
Frames: 15
Frame Time: .0083333
11.2094 15.5233 1.1812 0 0 0 0 0 0 -21 0 0 0 0 0 0 0 0 0 0 0 0 0 0 21 0 0 0 0 0 0 0 0 0 0 0 0 0 0 0 0 0 0 0 0 0 0 -16 0 0 21 0 0 11 0 0 0 -8 0 0 0 0 0 0 0 0 0 0 0 0 0 0 0 0 0 0 0 0 8 0 0 0 0 0 0 0 0 0 0 0 0 0 0 0 0 0
11.2094 15.5233 1.1812 -44.3963 -85.9849 50.5291 0.0000 0.0000 0.0000 -17.4645 7.5973 -24.3554 3.2158 11.0364 32.4028 0.6345 6.2016 -18.5697 0.1564 2.5482 7.0234 0.0000 0.0000 0.0000 20.7494 -8.1933 -27.8051 -4.0190 -12.1857 36.3921 0.1004 -15.7251 -21.2772 -0.5752 -4.8569 13.5008 1.0346 1.7995 2.5939 -0.6046 2.3816 -4.7358 -1.3953 1.0879 -6.3031 2.3982 0.1898 -19.3513 0.0007 -1.0744 30.0962 -0.6396 -0.3800 13.3622 -0.0000 0.0000 0.0000 5.6412 -14.7489 33.6733 49.5487 -52.8119 -25.8142 -0.0000 0.0000 -25.6912 5.3007 13.6984 1.2587 -7.1250 0.0000 -0.0000 -19.8751 42.8202 1.1169 -0.0000 0.0000 0.0000 5.9326 12.7888 40.6340 -63.7846 57.2369 -37.5074 0.0000 -0.0000 -48.4329 -11.4620 4.9440 -1.0011 7.1250 -0.0000 -0.0000 11.3484 -24.9280 5.6135
11.2045 15.5148 1.1581 -44.3605 -85.9361 50.5001 0.0000 0.0000 0.0000 -17.3136 7.7656 -24.5830 3.2759 11.1288 32.7156 0.6560 5.9011 -18.5736 0.1472 2.4727 6.8138 0.0000 0.0000 0.0000 20.8739 -8.4149 -27.9594 -4.0476 -12.2235 36.5272 0.0698 -15.5015 -21.2751 -0.5429 -4.7209 13.1142 1.1425 1.7841 2.6717 -0.6022 2.3684 -4.7458 -1.4552 1.0756 -6.3548 2.3560 0.1738 -19.4774 0.0599 -1.1069 30.1435 -0.6155 -0.3894 13.4094 0.0000 -0.0000 0.0000 5.9250 -13.8001 33.9947 46.6489 -51.5512 -23.5231 -0.0000 0.0000 -24.5657 5.1714 13.6221 1.2211 -7.1250 0.0000 -0.0000 -19.9607 42.7351 1.1660 0.0000 -0.0000 0.0000 5.5399 12.1434 40.8947 -60.1017 56.3370 -34.4257 0.0000 -0.0000 -47.4595 -11.3247 4.9186 -0.9837 7.1250 -0.0000 -0.0000 11.4521 -24.9556 5.6593
11.2010 15.5047 1.1341 -45.1093 -85.9382 51.2469 0.0000 0.0000 0.0000 -17.1535 8.0289 -24.8929 3.3572 11.2520 33.1346 0.6806 5.5494 -18.5798 0.1303 2.3265 6.4088 0.0000 0.0000 0.0000 21.0057 -8.5930 -28.1119 -4.0808 -12.2672 36.6837 0.0355 -15.2790 -21.3174 -0.5067 -4.5631 12.6666 1.2127 1.7987 2.7389 -0.5848 2.3954 -4.6990 -1.4799 1.0871 -6.3411 2.3276 0.1826 -19.4921 0.1058 -1.0906 30.0233 -0.5884 -0.3777 13.3626 0.0000 -0.0000 0.0000 6.1616 -12.8445 34.1803 44.0207 -50.2796 -21.4829 -0.0000 0.0000 -23.4282 5.3255 13.4538 1.2424 -7.1250 0.0000 -0.0000 -19.7721 42.5921 1.2270 0.0000 -0.0000 0.0000 5.2154 11.5107 41.0124 -56.5190 55.3086 -31.4613 0.0000 -0.0000 -45.7654 -11.2604 5.3114 -1.0559 7.1250 -0.0000 -0.0000 11.4681 -24.5641 5.7740
11.1967 15.4947 1.1087 -45.5626 -85.8695 51.7043 0.0000 0.0000 0.0000 -16.9443 8.3078 -25.2401 3.4447 11.3823 33.5802 0.7003 5.1649 -18.5194 0.1102 2.1401 5.8930 0.0000 0.0000 0.0000 21.1969 -8.7924 -28.2600 -4.1165 -12.3138 36.8514 -0.0016 -15.0729 -21.4154 -0.4760 -4.4248 12.2751 1.3027 1.7894 2.7939 -0.5559 2.3915 -4.6786 -1.5014 1.0819 -6.3490 2.3757 0.1869 -19.5345 0.0798 -1.0883 29.9629 -0.6059 -0.3736 13.3457 -0.0000 -0.0000 0.0000 6.2780 -11.9955 34.3434 41.5098 -48.9394 -19.5701 -0.0000 0.0000 -22.3565 5.1762 12.9980 1.1672 -7.1250 0.0000 -0.0000 -19.7505 42.1475 1.4524 -0.0000 -0.0000 0.0000 5.0140 10.8728 41.0852 -53.1204 54.1790 -28.6857 0.0000 -0.0000 -43.1278 -11.2961 6.0076 -1.1977 7.1250 -0.0000 -0.0000 11.3886 -23.8678 5.9197
11.1952 15.4812 1.0802 -46.0315 -85.8142 52.1704 0.0000 0.0000 0.0000 -16.7402 8.8959 -25.7856 3.5495 11.5355 34.1079 0.7267 4.3977 -18.2911 0.1008 2.0476 5.6372 0.0000 0.0000 0.0000 21.4232 -9.0701 -28.4787 -4.1590 -12.3691 37.0505 -0.0387 -14.8695 -21.5201 -0.4511 -4.3091 11.9478 1.3523 1.7872 2.9508 -0.5341 2.3964 -4.6541 -1.5121 1.0824 -6.4123 2.2134 0.1382 -19.6561 0.2744 -1.1652 29.9203 -0.5145 -0.3966 13.3553 -0.0000 0.0000 0.0000 6.2517 -11.1860 34.2776 39.4882 -47.7637 -18.0594 -0.0000 0.0000 -22.0391 4.9284 13.1318 1.1223 -7.1250 0.0000 -0.0000 -20.0061 42.2491 1.4203 -0.0000 0.0000 0.0000 4.9839 10.3006 40.8622 -50.2283 53.0872 -26.3566 0.0000 -0.0000 -38.9719 -11.2290 7.0562 -1.3971 7.1250 -0.0000 -0.0000 11.3640 -22.8219 6.1855
11.1928 15.4683 1.0531 -46.5182 -85.7619 52.6600 0.0000 0.0000 0.0000 -16.5319 9.3283 -26.2853 3.6669 11.7034 34.6906 0.7509 3.7877 -18.1720 0.0879 1.9120 5.2625 0.0000 0.0000 0.0000 21.6218 -9.3039 -28.6914 -4.2066 -12.4303 37.2717 -0.0784 -14.6483 -21.6274 -0.4248 -4.1829 11.5917 1.4168 1.7871 3.0710 -0.5113 2.4044 -4.6329 -1.5291 1.0838 -6.4575 2.1462 0.1120 -19.7374 0.3626 -1.2042 29.8484 -0.4744 -0.4073 13.3431 0.0000 0.0000 0.0000 6.3131 -10.3335 34.3362 37.5123 -46.5250 -16.6108 -0.0000 0.0000 -21.4868 4.7296 13.0678 1.0717 -7.1250 0.0000 -0.0000 -20.1549 42.1693 1.4735 0.0000 0.0000 0.0000 4.8447 9.6848 40.7860 -47.4850 51.9294 -24.1797 0.0000 -0.0000 -36.1512 -11.1614 7.7290 -1.5200 7.1250 -0.0000 -0.0000 11.3694 -22.1521 6.3663
11.1908 15.4540 1.0255 -47.0014 -85.7092 53.1456 0.0000 0.0000 0.0000 -16.3169 9.8148 -26.8494 3.8008 11.8906 35.3459 0.7743 3.0957 -18.0239 0.0756 1.7732 4.8792 0.0000 0.0000 0.0000 21.8251 -9.5521 -28.9314 -4.2621 -12.5012 37.5291 -0.1211 -14.4128 -21.7492 -0.3985 -4.0533 11.2266 1.4728 1.7886 3.2046 -0.4873 2.4147 -4.6114 -1.5409 1.0867 -6.5102 2.0732 0.0812 -19.8066 0.4529 -1.2463 29.7472 -0.4328 -0.4196 13.3160 -0.0000 -0.0000 0.0000 6.3332 -9.5046 34.3293 35.7270 -45.3243 -15.3280 -0.0000 0.0000 -21.0256 4.4850 13.0245 1.0127 -7.1250 0.0000 -0.0000 -20.3492 42.1045 1.5233 -0.0000 -0.0000 0.0000 4.7382 9.0735 40.6606 -45.0324 50.7844 -22.2639 0.0000 -0.0000 -33.4818 -11.0634 8.3752 -1.6313 7.1250 -0.0000 -0.0000 11.4005 -21.5103 6.5544
11.1891 15.4384 0.9974 -47.4995 -85.6532 53.6465 0.0000 0.0000 0.0000 -16.0932 10.3454 -27.4624 3.9470 12.0895 36.0493 0.7940 2.3404 -17.8359 0.0633 1.6235 4.4664 0.0000 0.0000 0.0000 22.0349 -9.8138 -29.1951 -4.3237 -12.5791 37.8128 -0.1661 -14.1616 -21.8761 -0.3727 -3.9213 10.8553 1.5273 1.7923 3.3513 -0.4633 2.4281 -4.5947 -1.5527 1.0909 -6.5757 1.9961 0.0445 -19.8621 0.5438 -1.2940 29.6261 -0.3911 -0.4348 13.2778 -0.0000 0.0000 0.0000 6.3261 -8.6980 34.2748 34.1208 -44.1741 -14.1972 -0.0000 0.0000 -20.6016 4.2115 12.9747 0.9472 -7.1250 0.0000 -0.0000 -20.5658 42.0310 1.5803 -0.0000 0.0000 0.0000 4.6545 8.4613 40.5236 -42.8781 49.6856 -20.6078 0.0000 -0.0000 -31.1910 -10.9230 8.9251 -1.7149 7.1250 -0.0000 -0.0000 11.4693 -20.9669 6.7398
11.1876 15.4212 0.9692 -48.0146 -85.5984 54.1623 0.0000 0.0000 0.0000 -15.8625 10.9107 -28.1259 4.1109 12.3065 36.8250 0.8106 1.5234 -17.6245 0.0513 1.4612 4.0187 0.0000 0.0000 0.0000 22.2433 -10.0916 -29.4843 -4.3934 -12.6662 38.1316 -0.2145 -13.8846 -22.0066 -0.3469 -3.7846 10.4715 1.5788 1.7980 3.5080 -0.4389 2.4443 -4.5801 -1.5631 1.0965 -6.6493 1.9211 0.0040 -19.8971 0.6251 -1.3426 29.4789 -0.3535 -0.4516 13.2244 -0.0000 -0.0000 0.0000 6.2984 -7.9151 34.1774 32.6675 -43.0729 -13.1944 -0.0000 0.0000 -20.1491 3.9276 12.8999 0.8781 -7.1250 0.0000 -0.0000 -20.7823 41.9333 1.6514 -0.0000 -0.0000 0.0000 4.5817 7.8531 40.3993 -41.0050 48.6542 -19.1903 0.0000 -0.0000 -29.4168 -10.7265 9.3444 -1.7617 7.1250 -0.0000 -0.0000 11.5857 -20.5567 6.9207
11.1863 15.4025 0.9412 -48.5861 -85.5419 54.7301 0.0000 0.0000 0.0000 -15.6182 11.5015 -28.8314 4.2931 12.5406 37.6722 0.8230 0.6569 -17.3916 0.0392 1.2776 3.5130 0.0000 0.0000 0.0000 22.4527 -10.3799 -29.7922 -4.4710 -12.7621 38.4844 -0.2666 -13.5807 -22.1432 -0.3219 -3.6467 10.0846 1.6325 1.8058 3.6749 -0.4141 2.4640 -4.5695 -1.5752 1.1035 -6.7328 1.8503 -0.0368 -19.9032 0.7006 -1.3894 29.3078 -0.3185 -0.4683 13.1551 -0.0000 -0.0000 0.0000 6.2599 -7.1630 34.0495 31.3496 -42.0225 -12.3032 -0.0000 0.0000 -19.6308 3.6514 12.7779 0.8086 -7.1250 0.0000 -0.0000 -20.9760 41.7924 1.7453 -0.0000 -0.0000 0.0000 4.5176 7.2489 40.3095 -39.3829 47.7000 -17.9815 0.0000 -0.0000 -28.1776 -10.4811 9.6305 -1.7727 7.1250 -0.0000 -0.0000 11.7438 -20.2818 7.0935
11.1850 15.3823 0.9137 -49.1772 -85.4849 55.3101 0.0000 0.0000 0.0000 -15.3627 12.1077 -29.5660 4.4936 12.7898 38.5866 0.8302 -0.2491 -17.1399 0.0276 1.0720 2.9470 0.0000 0.0000 0.0000 22.6575 -10.6857 -30.1163 -4.5565 -12.8663 38.8700 -0.3223 -13.2452 -22.2818 -0.2981 -3.5105 9.7034 1.6895 1.8149 3.8508 -0.3895 2.4861 -4.5620 -1.5901 1.1112 -6.8246 1.7895 -0.0785 -19.8855 0.7617 -1.4351 29.1235 -0.2905 -0.4857 13.0755 0.0000 -0.0000 0.0000 6.2178 -6.4476 33.9072 30.1503 -41.0218 -11.5081 -0.0000 0.0000 -19.0291 3.3592 12.6517 0.7365 -7.1250 0.0000 -0.0000 -21.1814 41.6466 1.8446 0.0000 -0.0000 0.0000 4.4629 6.6536 40.2485 -37.9710 46.8208 -16.9445 0.0000 -0.0000 -27.3479 -10.1959 9.8105 -1.7553 7.1250 -0.0000 -0.0000 11.9354 -20.1145 7.2603
11.1839 15.3607 0.8867 -49.8460 -85.4227 55.9603 0.0000 0.0000 0.0000 -15.0867 12.7175 -30.3227 4.7122 13.0522 39.5642 0.8311 -1.1677 -16.8713 0.0162 0.8226 2.2609 0.0000 0.0000 0.0000 22.8652 -10.9983 -30.4522 -4.6495 -12.9779 39.2858 -0.3803 -12.8884 -22.4230 -0.2758 -3.3778 9.3323 1.7552 1.8248 4.0362 -0.3638 2.5103 -4.5585 -1.6094 1.1193 -6.9259 1.7317 -0.1199 -19.8441 0.8207 -1.4804 28.9347 -0.2639 -0.5034 12.9895 0.0000 0.0000 0.0000 6.1780 -5.7731 33.7583 29.0570 -40.0713 -10.7974 -0.0000 0.0000 -18.3579 3.0535 12.5516 0.6642 -7.1250 0.0000 -0.0000 -21.4062 41.5241 1.9347 0.0000 0.0000 0.0000 4.4202 6.0755 40.2053 -36.7244 46.0049 -16.0415 0.0000 -0.0000 -26.7311 -9.9177 9.9327 -1.7275 7.1250 -0.0000 -0.0000 12.1245 -20.0046 7.4112
11.1829 15.3378 0.8604 -50.5270 -85.3587 56.6107 0.0000 0.0000 0.0000 -14.7925 13.3212 -31.0860 4.9479 13.3249 40.5971 0.8264 -2.0748 -16.6000 0.0063 0.5116 1.4058 0.0000 0.0000 0.0000 23.0684 -11.3203 -30.7934 -4.7498 -13.0964 39.7303 -0.4408 -12.5114 -22.5703 -0.2562 -3.2563 8.9933 1.8212 1.8337 4.2318 -0.3368 2.5338 -4.5565 -1.6282 1.1269 -7.0348 1.6787 -0.1568 -19.7888 0.8778 -1.5208 28.7540 -0.2381 -0.5189 12.9044 -0.0000 0.0000 0.0000 6.1448 -5.1382 33.6231 28.0541 -39.1660 -10.1578 -0.0000 0.0000 -17.6254 2.7572 12.4664 0.5956 -7.1250 0.0000 -0.0000 -21.6273 41.4167 2.0176 -0.0000 0.0000 0.0000 4.3902 5.5245 40.1606 -35.5973 45.2340 -15.2359 0.0000 -0.0000 -26.0981 -9.6857 10.0609 -1.7078 7.1250 -0.0000 -0.0000 12.2804 -19.8868 7.5442
11.1822 15.3137 0.8348 -51.2474 -85.2886 57.2918 0.0000 0.0000 0.0000 -14.4715 13.9051 -31.8507 5.1997 13.6052 41.6784 0.8180 -2.9492 -16.3461 0.0004 0.1241 0.3410 0.0000 0.0000 0.0000 23.2728 -11.6374 -31.1396 -4.8573 -13.2213 40.2025 -0.5023 -12.1271 -22.7259 -0.2399 -3.1522 8.7028 1.8902 1.8405 4.4376 -0.3076 2.5556 -4.5586 -1.6466 1.1332 -7.1543 1.6380 -0.1900 -19.7217 0.9260 -1.5583 28.5867 -0.2175 -0.5333 12.8225 -0.0000 0.0000 0.0000 6.1208 -4.5387 33.5063 27.1452 -38.3173 -9.5890 -0.0000 0.0000 -16.8806 2.4471 12.4173 0.5265 -7.1250 0.0000 -0.0000 -21.8715 41.3417 2.0859 -0.0000 0.0000 0.0000 4.3783 5.0065 40.0890 -34.5588 44.4945 -14.5033 0.0000 -0.0000 -25.2764 -9.5147 10.2566 -1.7094 7.1250 -0.0000 -0.0000 12.3894 -19.7002 7.6675
